<svg xmlns="http://www.w3.org/2000/svg" width="64" height="64" viewBox="0 0 24 24" fill="none">
  <path d="M12 10a2 2 0 0 0-2 2c0 1.02-.1 2.51-.26 4" stroke="#000000" stroke-width="1.5" stroke-linecap="round"/>
  <path d="M14 13.12c0-2.38 0-4.5-2-4.5-2 0-2 2.12-2 4.5" stroke="#000000" stroke-width="1.5" stroke-linecap="round"/>
  <path d="M17.15 12.16c.12-2.15-1.12-5.16-5.15-5.16-4.03 0-5.27 3.01-5.15 5.16" stroke="#000000" stroke-width="1.5" stroke-linecap="round"/>
  <path d="M4.33 10.3c.77-3.9 4-7.3 7.67-7.3 3.67 0 6.9 3.4 7.67 7.3" stroke="#000000" stroke-width="1.5" stroke-linecap="round"/>
  <circle cx="15" cy="15" r="6" fill="#ffffff" stroke="#000000" stroke-width="2"/>
  <path d="M19.2 19.2L23 23" stroke="#000000" stroke-width="2.5" stroke-linecap="round"/>
</svg>
